{"title":"White House Down (2013) 1080p BluRay {Dual Audio} {6Ch.} [Hindi ","uid":9526617,"size":2902409410,"categoryP":"video","categoryS":"hd___movies","magnet":"?xt=urn:btih:45e74d33cc054dd4911cc881bd5d630236e3b958&amp;dn=White+House+Down+%282013%29+1080p+BluRay+%7BDual+Audio%7D+%7B6Ch.%7D+%5BHindi+&amp;tr=udp%3A%2F%2Ftracker.openbittorrent.com%3A80&amp;tr=udp%3A%2F%2Fopen.demonii.com%3A1337&amp;tr=udp%3A%2F%2Ftracker.coppersurfer.tk%3A6969&amp;tr=udp%3A%2F%2Fexodus.desync.com%3A6969","seeders":3,"leechers":0,"uploader":"SaNRiM","files":-1,"time":1390761226,"description":"Storyline\n\nCapitol Policeman John Cale has just been denied his dream job with the Secret Service of protecting President James Sawyer. Not wanting to let down his little girl with the news, he takes her on a tour of the White House, when the complex is overtaken by a heavily armed paramilitary group. Now, with the nation's government falling into chaos and time running out, it's up to Cale to save the president, his daughter, and the country.\n\n\n\nTorrent Info\n\nGeneral\n\nUnique ID : 224486870803462535344826164385183980072 (0xA8E29941CBC8861EA6BD6B0485B85A28)\nComplete name : White House Down (2013) 1080p BluRay {Dual Audio} {6Ch.} [Hindi DD 5.1-English DD 5.1] [Hin+Eng Sub] ~SaNRiM~.mkv\nFormat : Matroska\nFormat version : Version 4 / Version 2\nFile size : 2.69 GiB\nDuration : 2h 11mn\nOverall bit rate : 2 932 Kbps\nMovie name : Enjoy the best ~SaNRiM~ Find me on facebook\nEncoded date : UTC 2014-01-26 15:52:57\nWriting library : libebml v1.3.0 + libmatroska v1.4.1\n\n\nVideo\n\nID : 1\nFormat : AVC\nFormat/Info : Advanced Video Codec\nFormat profile : &lt;a class=&quot;__cf_email__&quot; href=&quot;/cdn-cgi/l/email-protection&quot; data-cfemail=&quot;e4ac8d838ca4a8d0cad5&quot;&gt;[email&amp;#160;protected]&lt;/a&gt;&lt;script cf-hash='f9e31' type=&quot;text/javascript&quot;&gt;\n/* &lt;![CDATA[ */!function(){try{var t=&quot;currentScript&quot;in document?document.currentScript:function(){for(var t=document.getElementsByTagName(&quot;script&quot;),e=t.length;e--;)if(t[e].getAttribute(&quot;cf-hash&quot;))return t[e]}();if(t&amp;&amp;t.previousSibling){var e,r,n,i,c=t.previousSibling,a=c.getAttribute(&quot;data-cfemail&quot;);if(a){for(e=&quot;&quot;,r=parseInt(a.substr(0,2),16),n=2;a.length-n;n+=2)i=parseInt(a.substr(n,2),16)^r,e+=String.fromCharCode(i);e=document.createTextNode(e),c.parentNode.replaceChild(e,c)}}}catch(u){}}();/* ]]&gt; */&lt;/script&gt;\nFormat settings, CABAC : Yes\nFormat settings, ReFrames : 5 frames\nCodec ID : V_MPEG4/ISO/AVC\nDuration : 2h 11mn\nBit rate : 2 028 Kbps\nWidth : 1 920 pixels\nHeight : 802 pixels\nDisplay aspect ratio : 2.40:1\nFrame rate mode : Constant\nFrame rate : 23.976 fps\nColor space : YUV\nChroma subsampling : 4:2:0\nBit depth : 8 bits\nScan type : Progressive\nBits/(Pixel*Frame) : 0.055\nStream size : 1.82 GiB (67%)\nTitle : ~SaNRiM~\nWriting library : x264 core 132 r2 76a5c3a\nLanguage : English\nDefault : Yes\nForced : No\nColor primaries : BT.709\nMatrix coefficients : BT.709\n\n\nAudio #1\n\nID : 2\nFormat : AC-3\nFormat/Info : Audio Coding 3\nMode extension : CM (complete main)\nFormat settings, Endianness : Big\nCodec ID : A_AC3\nDuration : 2h 11mn\nBit rate mode : Constant\nBit rate : 448 Kbps\nChannel(s) : 6 channels\nChannel positions : Front: L C R, Side: L R, LFE\nSampling rate : 48.0 KHz\nBit depth : 16 bits\nCompression mode : Lossy\nStream size : 422 MiB (15%)\nTitle : ~SaNRiM~\nLanguage : Hindi\nDefault : Yes\nForced : No\n\n\nAudio #2\n\nID : 3\nFormat : AC-3\nFormat/Info : Audio Coding 3\nMode extension : CM (complete main)\nFormat settings, Endianness : Big\nCodec ID : A_AC3\nDuration : 2h 11mn\nBit rate mode : Constant\nBit rate : 448 Kbps\nChannel(s) : 6 channels\nChannel positions : Front: L C R, Side: L R, LFE\nSampling rate : 48.0 KHz\nBit depth : 16 bits\nCompression mode : Lossy\nStream size : 422 MiB (15%)\nTitle : ~SaNRiM~\nLanguage : English\nDefault : No\nForced : No\n\n\nText\n\nID : 4\nFormat : VobSub\nMuxing mode : zlib\nCodec ID : S_VOBSUB\nCodec ID/Info : The same subtitle format used on DVDs\nTitle : ~SaNRiM~\nLanguage : Hindi\nDefault : Yes\nForced : No\n\n\n\nScreens\n &lt;a href=&quot;\nhttp://someimage.com/f6X3ErW&quot; rel=&quot;nofollow&quot; target=&quot;_NEW&quot;&gt;\nhttp://someimage.com/f6X3ErW&lt;/a&gt; &lt;a href=&quot;\nhttp://someimage.com/cnVyD9V&quot; rel=&quot;nofollow&quot; target=&quot;_NEW&quot;&gt;\nhttp://someimage.com/cnVyD9V&lt;/a&gt; &lt;a href=&quot;\nhttp://someimage.com/QJsLjuA&quot; rel=&quot;nofollow&quot; target=&quot;_NEW&quot;&gt;\nhttp://someimage.com/QJsLjuA&lt;/a&gt; &lt;a href=&quot;\nhttp://someimage.com/psA6OmS&quot; rel=&quot;nofollow&quot; target=&quot;_NEW&quot;&gt;\nhttp://someimage.com/psA6OmS&lt;/a&gt; &lt;a href=&quot;\nhttp://someimage.com/HavM6jG&quot; rel=&quot;nofollow&quot; target=&quot;_NEW&quot;&gt;\nhttp://someimage.com/HavM6jG&lt;/a&gt; &lt;a href=&quot;\nhttp://someimage.com/BAsDOe1&quot; rel=&quot;nofollow&quot; target=&quot;_NEW&quot;&gt;\nhttp://someimage.com/BAsDOe1&lt;/a&gt; &lt;a href=&quot;\nhttp://someimage.com/idNYN5A&quot; rel=&quot;nofollow&quot; target=&quot;_NEW&quot;&gt;\nhttp://someimage.com/idNYN5A&lt;/a&gt; &lt;a href=&quot;\nhttp://someimage.com/Wq1cIr9&quot; rel=&quot;nofollow&quot; target=&quot;_NEW&quot;&gt;\nhttp://someimage.com/Wq1cIr9&lt;/a&gt; &lt;a href=&quot;\nhttp://someimage.com/nDRUEdw&quot; rel=&quot;nofollow&quot; target=&quot;_NEW&quot;&gt;\nhttp://someimage.com/nDRUEdw&lt;/a&gt; &lt;a href=&quot;\nhttp://someimage.com/Am31Mmv&quot; rel=&quot;nofollow&quot; target=&quot;_NEW&quot;&gt;\nhttp://someimage.com/Am31Mmv&lt;/a&gt; &lt;a href=&quot;\nhttp://someimage.com/rqmzuZo&quot; rel=&quot;nofollow&quot; target=&quot;_NEW&quot;&gt;\nhttp://someimage.com/rqmzuZo&lt;/a&gt; &lt;a href=&quot;\nhttp://someimage.com/7VOUcFX&quot; rel=&quot;nofollow&quot; target=&quot;_NEW&quot;&gt;\nhttp://someimage.com/7VOUcFX&lt;/a&gt; &lt;a href=&quot;\nhttp://someimage.com/LXWYrEI&quot; rel=&quot;nofollow&quot; target=&quot;_NEW&quot;&gt;\nhttp://someimage.com/LXWYrEI&lt;/a&gt; &lt;a href=&quot;\nhttp://someimage.com/VH5mTYd&quot; rel=&quot;nofollow&quot; target=&quot;_NEW&quot;&gt;\nhttp://someimage.com/VH5mTYd&lt;/a&gt; &lt;a href=&quot;\nhttp://someimage.com/wazNqLc&quot; rel=&quot;nofollow&quot; target=&quot;_NEW&quot;&gt;\nhttp://someimage.com/wazNqLc&lt;/a&gt; &lt;a href=&quot;\nhttp://someimage.com/KBqIn4s&quot; rel=&quot;nofollow&quot; target=&quot;_NEW&quot;&gt;\nhttp://someimage.com/KBqIn4s&lt;/a&gt; &lt;a href=&quot;\nhttp://someimage.com/qAg1n2P&quot; rel=&quot;nofollow&quot; target=&quot;_NEW&quot;&gt;\nhttp://someimage.com/qAg1n2P&lt;/a&gt; &lt;a href=&quot;\nhttp://someimage.com/Ewoq4jC&quot; rel=&quot;nofollow&quot; target=&quot;_NEW&quot;&gt;\nhttp://someimage.com/Ewoq4jC&lt;/a&gt; &lt;a href=&quot;\nhttp://someimage.com/N8Ga85N&quot; rel=&quot;nofollow&quot; target=&quot;_NEW&quot;&gt;\nhttp://someimage.com/N8Ga85N&lt;/a&gt; &lt;a href=&quot;\nhttp://someimage.com/pGQZ86y&quot; rel=&quot;nofollow&quot; target=&quot;_NEW&quot;&gt;\nhttp://someimage.com/pGQZ86y&lt;/a&gt; &lt;a href=&quot;\nhttp://someimage.com/m1RCsXt&quot; rel=&quot;nofollow&quot; target=&quot;_NEW&quot;&gt;\nhttp://someimage.com/m1RCsXt&lt;/a&gt;\n\n\n          A BIG THANKS TO GPSOFT &amp; FANTASYBOY009 FOR AUDIO\n\n\n\n                  If you like my work please comment\n                          Any request? Just PM me\n                       Please seed long after download\n                         Thank you &amp; enjoy the best\n                                 ~SaNRiM~\n\n\n","torrent":{"xt":"urn:btih:45e74d33cc054dd4911cc881bd5d630236e3b958","amp;dn":"White+House+Down+%282013%29+1080p+BluRay+%7BDual+Audio%7D+%7B6Ch.%7D+%5BHindi+","amp;tr":["udp%3A%2F%2Ftracker.openbittorrent.com%3A80","udp%3A%2F%2Fopen.demonii.com%3A1337","udp%3A%2F%2Ftracker.coppersurfer.tk%3A6969","udp%3A%2F%2Fexodus.desync.com%3A6969"],"infoHash":"45e74d33cc054dd4911cc881bd5d630236e3b958","infoHashBuffer":{"type":"Buffer","data":[69,231,77,51,204,5,77,212,145,28,200,129,189,93,99,2,54,227,185,88]},"announce":[],"urlList":[]}}